<?xml version="1.0" encoding="UTF-8" standalone="no"?>
<svg
   xmlns:dc="http://purl.org/dc/elements/1.1/"
   xmlns:cc="http://creativecommons.org/ns#"
   xmlns:rdf="http://www.w3.org/1999/02/22-rdf-syntax-ns#"
   xmlns:svg="http://www.w3.org/2000/svg"
   xmlns="http://www.w3.org/2000/svg"
   xmlns:sodipodi="http://sodipodi.sourceforge.net/DTD/sodipodi-0.dtd"
   xmlns:inkscape="http://www.inkscape.org/namespaces/inkscape"
   id="Isolation_Mode"
   data-name="Isolation Mode"
   viewBox="0 0 73.660006 94.853631"
   version="1.1"
   sodipodi:docname="a.svg"
   width="73.660004"
   height="94.85363"
   inkscape:version="0.92.4 (5da689c313, 2019-01-14)">
  <metadata
     id="metadata5125">
    <rdf:RDF>
      <cc:Work
         rdf:about="">
        <dc:format>image/svg+xml</dc:format>
        <dc:type
           rdf:resource="http://purl.org/dc/dcmitype/StillImage" />
        <dc:title>soma_letter</dc:title>
      </cc:Work>
    </rdf:RDF>
  </metadata>
  <defs
     id="defs5123" />
  <sodipodi:namedview
     pagecolor="#ffffff"
     bordercolor="#666666"
     borderopacity="1"
     objecttolerance="10"
     gridtolerance="10"
     guidetolerance="10"
     inkscape:pageopacity="0"
     inkscape:pageshadow="2"
     inkscape:window-width="1920"
     inkscape:window-height="1057"
     id="namedview5121"
     showgrid="false"
     fit-margin-top="0"
     fit-margin-left="0"
     fit-margin-right="0"
     fit-margin-bottom="0"
     inkscape:zoom="3.8753644"
     inkscape:cx="60.938622"
     inkscape:cy="-6.8596197"
     inkscape:window-x="-8"
     inkscape:window-y="-8"
     inkscape:window-maximized="1"
     inkscape:current-layer="Isolation_Mode" />
  <title
     id="title5116">soma_letter</title>
  <path
     d="M 28.57,94.85 C 14.37,94.85 0,85.56 0,67.8 0,59.35 2.82,52.25 8.39,46.69 17.03,38.07 31.66,33.6 51.89,33.41 51.77,21.7 46.07,15.95 34.45,15.95 A 40.59,40.59 0 0 0 13.16,22.04 L 10.83,23.56 5.83,8.93 7.26,8 C 15.1,2.89 25.87,0 36.8,0 c 22.89,0 35,13 35,37.61 v 32.38 a 117.65,117.65 0 0 0 1.39,20.36 l 0.47,2.58 H 54.81 l -1,-8.34 A 34.94,34.94 0 0 1 28.57,94.85 Z M 53.31,37.77 c -19.51,0 -34,4.15 -41.85,12 -4.72,4.71 -7.11,10.77 -7.11,18 0,10.92 7.58,22.68 24.21,22.68 10.11,0 19.31,-4.47 24.62,-12 l 0.65,-0.92 h 3.62 l 1.25,10.92 h 9.75 a 135.5,135.5 0 0 1 -1,-18.51 V 37.56 C 67.45,15.5 57.14,4.32 36.82,4.32 c -9.3,0 -18.77,2.39 -25.73,6.45 l 2.13,6.19 a 45.81,45.81 0 0 1 21.23,-5.38 c 14.05,0 21.79,7.89 21.79,22.22 v 4 H 53.3 Z M 32.67,83.22 c -10.31,0 -17,-6.76 -17,-17.21 a 17.83,17.83 0 0 1 5.28,-13.23 c 6.05,-6 17.32,-8.82 33.5,-8.46 h 2.13 v 17.17 a 18.66,18.66 0 0 1 -1,5.7 23.71,23.71 0 0 1 -22.91,16.03 z M 51.87,48.7 c -13.59,0 -23,2.43 -27.85,7.24 a 13.43,13.43 0 0 0 -4,10.11 c 0,8 4.72,12.84 12.62,12.84 a 19.39,19.39 0 0 0 18.8,-13 14.14,14.14 0 0 0 0.78,-4.3 V 48.7 h -0.38 z"
     id="path5118"
     inkscape:connector-curvature="0"
     style="fill:#ff381d;fill-opacity:1" />
</svg>
