<?xml version="1.0" encoding="UTF-8" standalone="no"?>
<svg
   xmlns:dc="http://purl.org/dc/elements/1.1/"
   xmlns:cc="http://creativecommons.org/ns#"
   xmlns:rdf="http://www.w3.org/1999/02/22-rdf-syntax-ns#"
   xmlns:svg="http://www.w3.org/2000/svg"
   xmlns="http://www.w3.org/2000/svg"
   xmlns:sodipodi="http://sodipodi.sourceforge.net/DTD/sodipodi-0.dtd"
   xmlns:inkscape="http://www.inkscape.org/namespaces/inkscape"
   id="Isolation_Mode"
   data-name="Isolation Mode"
   viewBox="0 0 106.41001 93.220003"
   version="1.1"
   sodipodi:docname="m.svg"
   width="106.41"
   height="93.220001"
   inkscape:version="0.92.4 (5da689c313, 2019-01-14)">
  <metadata
     id="metadata4560">
    <rdf:RDF>
      <cc:Work
         rdf:about="">
        <dc:format>image/svg+xml</dc:format>
        <dc:type
           rdf:resource="http://purl.org/dc/dcmitype/StillImage" />
        <dc:title>soma_letter</dc:title>
      </cc:Work>
    </rdf:RDF>
  </metadata>
  <defs
     id="defs4558" />
  <sodipodi:namedview
     pagecolor="#ffffff"
     bordercolor="#666666"
     borderopacity="1"
     objecttolerance="10"
     gridtolerance="10"
     guidetolerance="10"
     inkscape:pageopacity="0"
     inkscape:pageshadow="2"
     inkscape:window-width="1920"
     inkscape:window-height="1057"
     id="namedview4556"
     showgrid="false"
     fit-margin-top="0"
     fit-margin-left="0"
     fit-margin-right="0"
     fit-margin-bottom="0"
     inkscape:zoom="0.9688411"
     inkscape:cx="53.204998"
     inkscape:cy="60.675002"
     inkscape:window-x="-8"
     inkscape:window-y="-8"
     inkscape:window-maximized="1"
     inkscape:current-layer="Isolation_Mode" />
  <title
     id="title4551">soma_letter</title>
  <path
     d="M 106.41,93.22 H 86.63 L 84.2,43.31 c -0.29,-4.86 -0.59,-10.1 -0.86,-15.4 -1.69,5.12 -3.69,10.82 -6.49,18.53 L 59.28,92.67 H 44.54 L 28.29,47.35 C 26.5,41.85 24.4,34.97 22.55,28.63 c -0.3,6.87 -0.65,14 -1,20.49 l -2.3,44.1 H 0 L 6.91,0 h 23.45 l 16.48,46.23 c 0.65,1.95 1.41,4.19 2.23,6.6 1.32,3.87 2.75,8.06 4,11.9 2.34,-7 5.7,-16.64 8.53,-24.55 L 76.4,0 H 99.84 Z M 90.78,88.85 h 11 L 95.84,4.37 h -16.4 l -13.76,37.3 c -3.57,10 -8.44,24 -10.39,30.36 l -0.45,1.55 H 51.21 L 50.76,72 C 49.34,67.08 47.02,60.26 44.96,54.24 44.14,51.83 43.37,49.57 42.73,47.66 L 27.16,4.37 H 10.95 L 4.69,88.85 H 15.1 l 2.09,-40 c 0.58,-10.27 1.11,-21.9 1.46,-31.91 l 0.19,-2.19 4.38,0.07 0.43,1.62 c 2.09,7.87 5.85,20.53 8.75,29.44 l 15.2,42.37 h 8.68 L 72.76,44.86 c 4.73,-13 7.16,-20.24 9.64,-28.66 l 0.46,-1.57 h 4.28 l 0.07,2.11 c 0.3,8.81 0.84,18.08 1.33,26.26 l 0.32,5.45 z"
     id="path4553"
     inkscape:connector-curvature="0"
     style="fill:#ff381d;fill-opacity:1" />
</svg>
