<?xml version="1.0" encoding="UTF-8" standalone="no"?>
<svg
   xmlns:dc="http://purl.org/dc/elements/1.1/"
   xmlns:cc="http://creativecommons.org/ns#"
   xmlns:rdf="http://www.w3.org/1999/02/22-rdf-syntax-ns#"
   xmlns:svg="http://www.w3.org/2000/svg"
   xmlns="http://www.w3.org/2000/svg"
   xmlns:sodipodi="http://sodipodi.sourceforge.net/DTD/sodipodi-0.dtd"
   xmlns:inkscape="http://www.inkscape.org/namespaces/inkscape"
   id="Isolation_Mode"
   data-name="Isolation Mode"
   viewBox="0 0 88.730006 94.910005"
   version="1.1"
   sodipodi:docname="o.svg"
   width="88.730003"
   height="94.910004"
   inkscape:version="0.92.4 (5da689c313, 2019-01-14)">
  <metadata
     id="metadata3733">
    <rdf:RDF>
      <cc:Work
         rdf:about="">
        <dc:format>image/svg+xml</dc:format>
        <dc:type
           rdf:resource="http://purl.org/dc/dcmitype/StillImage" />
        <dc:title>soma_letter</dc:title>
      </cc:Work>
    </rdf:RDF>
  </metadata>
  <defs
     id="defs3731" />
  <sodipodi:namedview
     pagecolor="#ffffff"
     bordercolor="#666666"
     borderopacity="1"
     objecttolerance="10"
     gridtolerance="10"
     guidetolerance="10"
     inkscape:pageopacity="0"
     inkscape:pageshadow="2"
     inkscape:window-width="1920"
     inkscape:window-height="1057"
     id="namedview3729"
     showgrid="false"
     fit-margin-top="0"
     fit-margin-left="0"
     fit-margin-right="0"
     fit-margin-bottom="0"
     inkscape:zoom="3.6454699"
     inkscape:cx="-0.21087421"
     inkscape:cy="62.355002"
     inkscape:window-x="-8"
     inkscape:window-y="-8"
     inkscape:window-maximized="1"
     inkscape:current-layer="Isolation_Mode" />
  <title
     id="title3724">soma_letter</title>
  <path
     d="M 43.56,94.91 C 17.92,94.91 0,75.69 0,48.17 0,19.81 18.49,0 45,0 70.75,0 88.73,19.22 88.73,46.74 88.72,80.02 66,94.91 43.56,94.91 Z M 45,4.38 c -24.3,0 -40.62,17.6 -40.62,43.8 0,24.95 16.12,42.37 39.19,42.37 20.31,0 40.8,-13.54 40.8,-43.8 C 84.36,21.4 68.54,4.38 45,4.38 Z M 44.29,83.11 C 27.84,83.11 15.9,68.2 15.9,47.65 c 0,-17.83 8.89,-35.82 28.75,-35.82 13.5,0 28,11.1 28,35.47 0.02,20.74 -11.92,35.8 -28.37,35.8 z m 0.36,-66.92 c -16.85,0 -24.39,15.8 -24.39,31.45 0,18 10.11,31.09 24,31.09 13.89,0 24,-13.23 24,-31.45 0.05,-10.75 -4.9,-31.1 -23.63,-31.1 z"
     id="path3726"
     inkscape:connector-curvature="0"
     style="fill:#ff381d;fill-opacity:1" />
</svg>
