<?xml version="1.0" encoding="UTF-8" standalone="no"?>
<svg
   xmlns:dc="http://purl.org/dc/elements/1.1/"
   xmlns:cc="http://creativecommons.org/ns#"
   xmlns:rdf="http://www.w3.org/1999/02/22-rdf-syntax-ns#"
   xmlns:svg="http://www.w3.org/2000/svg"
   xmlns="http://www.w3.org/2000/svg"
   xmlns:sodipodi="http://sodipodi.sourceforge.net/DTD/sodipodi-0.dtd"
   xmlns:inkscape="http://www.inkscape.org/namespaces/inkscape"
   class="soma-letter"
   viewBox="0 0 61.320009 94.750001"
   version="1.1"
   id="svg6"
   sodipodi:docname="s.svg"
   width="61.320007"
   height="94.75"
   inkscape:version="0.92.4 (unknown)">
  <metadata
     id="metadata12">
    <rdf:RDF>
      <cc:Work
         rdf:about="">
        <dc:format>image/svg+xml</dc:format>
        <dc:type
           rdf:resource="http://purl.org/dc/dcmitype/StillImage" />
        <dc:title>soma_letter</dc:title>
      </cc:Work>
    </rdf:RDF>
  </metadata>
  <defs
     id="defs10" />
  <sodipodi:namedview
     pagecolor="#ffffff"
     bordercolor="#666666"
     borderopacity="1"
     objecttolerance="10"
     gridtolerance="10"
     guidetolerance="10"
     inkscape:pageopacity="0"
     inkscape:pageshadow="2"
     inkscape:window-width="3200"
     inkscape:window-height="1672"
     id="namedview8"
     showgrid="false"
     fit-margin-top="0"
     fit-margin-left="0"
     fit-margin-right="0"
     fit-margin-bottom="0"
     inkscape:zoom="3.8753644"
     inkscape:cx="-145.74598"
     inkscape:cy="27.536885"
     inkscape:window-x="0"
     inkscape:window-y="54"
     inkscape:window-maximized="1"
     inkscape:current-layer="svg6" />
  <title
     id="title2">soma_letter</title>
  <path
     d="M 26.87,94.75 C 17.44,94.75 8.2,92.49 1.51,88.54 L 0,87.65 5.36,71.28 7.74,72.84 a 38.77,38.77 0 0 0 19.49,5.91 c 9.13,0 14.59,-4 14.59,-10.7 0,-5.48 -2.33,-9.32 -14.63,-13.88 C 7.14,46.99 2.94,35.75 2.94,27.59 2.94,11.34 16.08,0 34.94,0 c 8,0 16.35,2.12 22.33,5.67 L 58.8,6.58 53.41,22.33 51.08,20.85 A 31.55,31.55 0 0 0 34.59,16.18 c -7.34,0 -12.27,3.87 -12.27,9.63 0,5.35 3.37,8.18 15,12.63 16.63,6.36 24,15 24,28.16 C 61.33,83.68 47.8,94.75 26.87,94.75 Z M 5.25,85.62 c 5.89,3 13.65,4.76 21.62,4.76 18.57,0 30.1,-9.1 30.1,-23.76 0,-11.34 -6.15,-18.31 -21.24,-24.08 -10.09,-3.88 -17.81,-7.56 -17.81,-16.79 0,-8.24 6.83,-14 16.62,-14 a 35.74,35.74 0 0 1 16.45,4 L 53.46,8.53 A 42.2,42.2 0 0 0 34.9,4.32 c -16.25,0 -27.6,9.55 -27.6,23.22 0,9.83 7.19,17.38 21.38,22.46 10.81,4 17.5,8.4 17.5,18 0,7.28 -5,15.07 -18.94,15.07 A 43.61,43.61 0 0 1 7.78,77.88 Z"
     id="path4"
     inkscape:connector-curvature="0"
     style="fill:#ff381d;fill-opacity:1" />
</svg>
