<?xml version="1.0" encoding="UTF-8" standalone="no"?>
<!-- Generator: Adobe Illustrator 19.2.0, SVG Export Plug-In . SVG Version: 6.00 Build 0)  -->

<svg
   xmlns:dc="http://purl.org/dc/elements/1.1/"
   xmlns:cc="http://creativecommons.org/ns#"
   xmlns:rdf="http://www.w3.org/1999/02/22-rdf-syntax-ns#"
   xmlns:svg="http://www.w3.org/2000/svg"
   xmlns="http://www.w3.org/2000/svg"
   xmlns:sodipodi="http://sodipodi.sourceforge.net/DTD/sodipodi-0.dtd"
   xmlns:inkscape="http://www.inkscape.org/namespaces/inkscape"
   version="1.1"
   id="Layer_1"
   x="0px"
   y="0px"
   viewBox="0 0 285.39999 262.79999"
   xml:space="preserve"
   sodipodi:docname="serce.svg"
   width="285.39999"
   height="262.79999"
   inkscape:version="0.92.4 (unknown)"><metadata
   id="metadata11"><rdf:RDF><cc:Work
       rdf:about=""><dc:format>image/svg+xml</dc:format><dc:type
         rdf:resource="http://purl.org/dc/dcmitype/StillImage" /><dc:title></dc:title></cc:Work></rdf:RDF></metadata><defs
   id="defs9" /><sodipodi:namedview
   pagecolor="#ffffff"
   bordercolor="#666666"
   borderopacity="1"
   objecttolerance="10"
   gridtolerance="10"
   guidetolerance="10"
   inkscape:pageopacity="0"
   inkscape:pageshadow="2"
   inkscape:window-width="3200"
   inkscape:window-height="1672"
   id="namedview7"
   showgrid="false"
   fit-margin-top="0"
   fit-margin-left="0"
   fit-margin-right="0"
   fit-margin-bottom="0"
   inkscape:zoom="0.59"
   inkscape:cx="145.68983"
   inkscape:cy="131.8"
   inkscape:window-x="0"
   inkscape:window-y="54"
   inkscape:window-maximized="1"
   inkscape:current-layer="Layer_1" />
<style
   type="text/css"
   id="style2">
	.st0{fill:#FF381D;}
</style>
<path
   class="st0"
   d="m 143.1,262.8 c 2,0 4,-1 5.2,-2.6 11.1,-14.6 16.6,-19.7 38.3,-39.8 9,-8.4 20.2,-18.8 35.7,-33.4 55.6,-52.7 63.1,-83.2 63.1,-106.1 C 285.4,50.8 270.8,0 216.2,0 172.9,0 151.2,27.3 142.8,41.5 134.3,27.2 112.5,0 69.2,0 14.6,0 0,50.9 0,80.9 c 0,22.9 7.5,53.4 63.1,106.1 15.5,14.6 26.7,25 35.6,33.4 21.7,20.2 27.1,25.2 38.3,39.8 1.2,1.6 3.2,2.6 5.2,2.6 z"
   id="path4"
   inkscape:connector-curvature="0"
   style="fill:#ff381d" />
</svg>