<?xml version="1.0" encoding="utf-8"?>
<!-- Generator: Adobe Illustrator 19.2.0, SVG Export Plug-In . SVG Version: 6.00 Build 0)  -->
<svg version="1.1" id="Layer_1" xmlns="http://www.w3.org/2000/svg" xmlns:xlink="http://www.w3.org/1999/xlink" x="0px" y="0px"
	 viewBox="0 0 36.7 168.6" style="enable-background:new 0 0 36.7 168.6;" xml:space="preserve">
<style type="text/css">
	.st0{fill:#FF381D;}
	.st1{fill:#FFFFFF;}
</style>
<rect class="st0" width="36.7" height="168.6"/>
<g>
	<path class="st1" d="M18,37c-1.8,0-3.5-0.4-4.8-1.2l-0.3-0.2l1-3.1l0.4,0.3c0.8,0.6,2.3,1.1,3.7,1.1c1.7,0,2.8-0.8,2.8-2
		c0-1-0.4-1.8-2.8-2.6c-3.8-1.4-4.6-3.5-4.6-5c0-3.1,2.5-5.2,6.1-5.2c1.5,0,3.1,0.4,4.2,1.1l0.3,0.2l-1,3l-0.4-0.3
		c-0.4-0.3-1.6-0.9-3.1-0.9c-1.4,0-2.3,0.7-2.3,1.8c0,1,0.6,1.5,2.8,2.4c3.1,1.2,4.6,2.8,4.6,5.3C24.5,35,22,37,18,37z M13.9,35.3
		c1.1,0.6,2.6,0.9,4.1,0.9c3.5,0,5.7-1.7,5.7-4.5c0-2.1-1.2-3.5-4-4.5c-1.9-0.7-3.4-1.4-3.4-3.2c0-1.6,1.3-2.6,3.1-2.6
		c1.4,0,2.4,0.4,3.1,0.8l0.5-1.4c-1-0.5-2.3-0.8-3.5-0.8c-3.1,0-5.2,1.8-5.2,4.4c0,1.9,1.4,3.3,4,4.2c2,0.8,3.3,1.6,3.3,3.4
		c0,1.4-0.9,2.8-3.6,2.8c-1.3,0-2.7-0.5-3.7-1L13.9,35.3z"/>
	<path class="st1" d="M18.6,92.2c-4.9,0-8.2-3.6-8.2-8.8c0-5.4,3.5-9.1,8.5-9.1c4.9,0,8.3,3.6,8.3,8.8
		C27.1,89.3,22.8,92.2,18.6,92.2z M18.8,75.1c-4.6,0-7.7,3.3-7.7,8.3c0,4.7,3.1,8,7.4,8c3.8,0,7.7-2.6,7.7-8.3
		C26.3,78.3,23.3,75.1,18.8,75.1z M18.7,89.9c-3.1,0-5.4-2.8-5.4-6.7c0-3.4,1.7-6.8,5.4-6.8c2.6,0,5.3,2.1,5.3,6.7
		C24.1,87.1,21.8,89.9,18.7,89.9z M18.8,77.3c-3.2,0-4.6,3-4.6,5.9c0,3.4,1.9,5.9,4.6,5.9c2.6,0,4.6-2.5,4.6-5.9
		C23.3,81.1,22.3,77.3,18.8,77.3z"/>
	<path class="st1" d="M17.2,150.4c-2.7,0-5.4-1.8-5.4-5.1c0-1.6,0.5-2.9,1.6-4c1.6-1.6,4.4-2.5,8.2-2.5c0-2.2-1.1-3.3-3.3-3.3
		c-1.4,0-2.9,0.4-4,1.1l-0.4,0.3l-1-2.8l0.3-0.2c1.5-1,3.5-1.5,5.6-1.5c4.3,0,6.6,2.5,6.6,7.1v6.1c0,1.6,0.1,2.9,0.3,3.8l0.1,0.5
		h-3.6l-0.2-1.6C20.8,149.7,19,150.4,17.2,150.4z M21.8,139.7c-3.7,0-6.4,0.8-7.9,2.3c-0.9,0.9-1.3,2-1.3,3.4c0,2.1,1.4,4.3,4.6,4.3
		c1.9,0,3.7-0.8,4.7-2.3l0.1-0.2h0.7l0.2,2.1h1.9c-0.1-0.9-0.2-2.1-0.2-3.5v-6.1c0-4.2-2-6.3-5.8-6.3c-1.8,0-3.6,0.5-4.9,1.2
		l0.4,1.2c1.2-0.6,2.6-1,4-1c2.7,0,4.1,1.5,4.1,4.2v0.8l-0.4,0C21.9,139.7,21.9,139.7,21.8,139.7z M17.9,148.2c-2,0-3.2-1.3-3.2-3.2
		c0-1,0.3-1.8,1-2.5c1.1-1.1,3.3-1.7,6.3-1.6l0.4,0v3.2c0,0.3-0.1,0.7-0.2,1.1C21.8,146.6,20.4,148.2,17.9,148.2z M21.6,141.7
		c-2.6,0-4.3,0.5-5.3,1.4c-0.5,0.5-0.8,1.1-0.8,1.9c0,1.5,0.9,2.4,2.4,2.4c2,0,3.2-1.3,3.6-2.5c0.1-0.3,0.1-0.6,0.1-0.8L21.6,141.7
		C21.6,141.7,21.6,141.7,21.6,141.7z"/>
	<g>
		<path class="st1" d="M28.8,120.4h-3.7l-0.5-9.4c-0.1-0.9-0.1-1.9-0.2-2.9c-0.3,1-0.7,2-1.2,3.5l-3.3,8.7h-2.8l-3.1-8.6
			c-0.3-1-0.7-2.3-1.1-3.5c-0.1,1.3-0.1,2.6-0.2,3.9l-0.4,8.3H8.6l1.3-17.6h4.1h0.3l0.1,0.3l3,8.5c0.1,0.4,0.3,0.8,0.4,1.2
			c0.2,0.7,0.5,1.5,0.8,2.2c0.4-1.3,1.1-3.1,1.6-4.6l2.8-7.6h4.4L28.8,120.4z M25.8,119.6h2.1l-1.1-15.9h-3.1l-2.6,7
			c-0.7,1.9-1.6,4.5-2,5.7l-0.1,0.3h-0.7l-0.1-0.3c-0.3-0.9-0.7-2.2-1.1-3.4c-0.2-0.5-0.3-0.9-0.4-1.2l-2.9-8.2h-3.1l-1.2,15.9h2
			l0.4-7.5c0.1-1.9,0.3-6.4,0.3-6.4l0.9,0l0.1,0.3c0.4,1.5,1.1,3.9,1.7,5.6l2.9,8h1.6l3.1-8.2c0.9-2.5,1.4-3.8,1.8-5.4l0.1-0.3h0.8
			l0,0.4c0.1,1.7,0.2,3.4,0.3,5l0.1,1L25.8,119.6z"/>
	</g>
	<g>
		<g>
			<g>
				<path class="st1" d="M27.4,53.9c-0.1,0-0.2-0.1-0.3-0.1c-0.6-0.4-0.8-1.2-0.4-1.7c0.2-0.3,0.5-0.5,0.8-0.6c0.3-0.1,0.7,0,1,0.2
					c0.3,0.2,0.5,0.5,0.6,0.8c0.1,0.3,0,0.7-0.2,1l0,0C28.5,53.8,27.9,54,27.4,53.9z M28,52c-0.3-0.1-0.6,0-0.8,0.3
					c-0.2,0.3-0.1,0.7,0.2,0.9c0.1,0.1,0.3,0.1,0.5,0.1c0.2,0,0.3-0.1,0.4-0.3l0,0c0.1-0.1,0.1-0.3,0.1-0.5c0-0.2-0.1-0.3-0.3-0.4
					C28.1,52.1,28,52,28,52z"/>
			</g>
			<g>
				<g>
					
						<rect x="17" y="38.9" transform="matrix(0.1908 -0.9816 0.9816 0.1908 -34.7457 57.1417)" class="st1" width="0.6" height="21.5"/>
				</g>
				<g>
					<path class="st1" d="M6,49.7c-0.4-0.1-0.7-0.4-0.8-0.8C5,48.5,5.1,48,5.4,47.7c0.3-0.4,0.9-0.5,1.4-0.4l-0.1,0.6
						c-0.4-0.1-0.7,0-0.8,0.2c-0.1,0.2-0.2,0.4-0.1,0.6c0.1,0.2,0.3,0.4,0.6,0.4l0.4,0.1l21.1,4.1l-0.1,0.6L6.2,49.7
						C6.1,49.7,6,49.7,6,49.7z"/>
				</g>
			</g>
		</g>
		<g>
			<g>
				<path class="st1" d="M27,66.6c-0.1-0.1-0.2-0.1-0.2-0.2c-0.5-0.5-0.4-1.3,0.1-1.8c0.3-0.2,0.6-0.3,0.9-0.3
					c0.3,0,0.6,0.2,0.9,0.4s0.3,0.6,0.3,0.9c0,0.3-0.2,0.6-0.4,0.9l0,0C28.1,66.9,27.5,66.9,27,66.6z M28.2,65
					c-0.2-0.2-0.6-0.2-0.8,0c-0.3,0.2-0.3,0.7-0.1,0.9c0.1,0.1,0.3,0.2,0.5,0.2c0.2,0,0.3,0,0.5-0.2l0,0c0.1-0.1,0.2-0.3,0.2-0.5
					c0-0.2,0-0.3-0.2-0.5C28.2,65.1,28.2,65,28.2,65z"/>
			</g>
			<g>
				<g>
					
						<rect x="18.4" y="48.8" transform="matrix(0.4734 -0.8809 0.8809 0.4734 -42.6218 47.8034)" class="st1" width="0.6" height="21.5"/>
				</g>
				<g>
					<path class="st1" d="M7.9,56.2c-0.3-0.2-0.6-0.6-0.6-1c0-0.4,0.2-0.9,0.6-1.1c0.4-0.3,1-0.2,1.5,0.1l-0.3,0.5
						c-0.3-0.2-0.6-0.2-0.9-0.1C8,54.8,7.9,55,7.9,55.2c0,0.2,0.2,0.5,0.4,0.6L8.7,56l18.9,10.2l-0.3,0.5L8.1,56.4
						C8,56.3,7.9,56.3,7.9,56.2z"/>
				</g>
			</g>
		</g>
	</g>
</g>
</svg>
